<svg width="48" height="48" viewBox="0 0 48 48" fill="none" xmlns="http://www.w3.org/2000/svg">
<rect width="48" height="48" rx="24" fill="#10B981"/>
<path d="M19.1668 33.856C19.1668 33.648 19.1268 33.544 19.0468 33.544L18.4948 33.808C18.4948 33.696 18.4308 33.616 18.3028 33.568L18.1108 33.544C17.9828 33.544 17.8228 33.6 17.6308 33.712C17.5988 33.632 17.5588 33.552 17.5108 33.472C17.4628 33.392 17.4228 33.32 17.3908 33.256C17.1828 32.856 16.9748 32.416 16.7668 31.936C16.5748 31.44 16.3908 30.968 16.2148 30.52C16.0548 30.072 15.9268 29.72 15.8308 29.464C15.7668 29.256 15.6948 28.944 15.6148 28.528C15.5348 28.112 15.4548 27.584 15.3748 26.944C15.5508 27.056 15.6868 27.112 15.7828 27.112C15.8948 27.112 15.9988 26.944 16.0948 26.608C16.1428 26.672 16.2308 26.704 16.3588 26.704C16.4548 26.704 16.5268 26.672 16.5748 26.608L16.9588 26.032L17.3908 26.176H17.4148C17.4468 26.176 17.4788 26.16 17.5108 26.128C17.5428 26.096 17.5908 26.064 17.6548 26.032C17.7828 25.952 17.8788 25.912 17.9428 25.912L18.0148 25.936C18.4148 26.128 18.6708 26.48 18.7828 26.992C19.0708 28.208 19.3588 28.816 19.6468 28.816C19.9348 28.816 20.2708 28.512 20.6548 27.904C20.8468 27.6 21.0388 27.248 21.2308 26.848C21.4388 26.448 21.6468 26 21.8548 25.504C21.8868 25.696 21.9188 25.792 21.9508 25.792C22.0308 25.792 22.1668 25.592 22.3588 25.192C22.5668 24.792 22.8948 24.24 23.3428 23.536C23.5988 23.104 23.9188 22.616 24.3028 22.072C24.7028 21.528 25.1268 20.968 25.5748 20.392C26.0228 19.816 26.4548 19.272 26.8708 18.76C27.3028 18.248 27.6868 17.808 28.0228 17.44C28.3588 17.072 28.6068 16.832 28.7668 16.72C29.3748 16.304 29.8548 15.904 30.2068 15.52C30.1908 15.632 30.1668 15.736 30.1348 15.832C30.1188 15.912 30.1108 15.968 30.1108 16C30.1108 16.064 30.1428 16.096 30.2068 16.096L30.8788 15.76V15.856C30.8788 15.984 30.9108 16.048 30.9748 16.048C31.0228 16.048 31.1188 15.976 31.2628 15.832C31.4068 15.688 31.4868 15.584 31.5028 15.52L31.4548 15.856L32.2708 15.376L32.0788 15.808C32.3348 15.632 32.5188 15.544 32.6308 15.544C32.6948 15.544 32.7428 15.584 32.7748 15.664C32.8068 15.728 32.8228 15.792 32.8228 15.856C32.8228 15.952 32.7828 16.064 32.7028 16.192C32.6228 16.32 32.5188 16.472 32.3908 16.648C32.2948 16.776 32.1348 16.968 31.9108 17.224C31.7028 17.464 31.3828 17.824 30.9508 18.304C30.5188 18.768 29.9428 19.416 29.2228 20.248C29.0308 20.456 28.7348 20.824 28.3348 21.352C27.9348 21.864 27.4788 22.464 26.9668 23.152C26.4708 23.824 25.9748 24.504 25.4788 25.192C24.9828 25.88 24.5428 26.504 24.1588 27.064C23.7748 27.608 23.5028 28.016 23.3428 28.288L21.8548 30.808C21.5348 31.352 21.2708 31.8 21.0628 32.152C20.8548 32.488 20.6948 32.72 20.5828 32.848C20.3428 33.136 20.0788 33.392 19.7908 33.616L19.5748 33.496L19.3828 33.616L19.1668 33.856Z" fill="white"/>
</svg>
